<?xml version="1.0" encoding="UTF-8"?>
<!DOCTYPE svg PUBLIC "-//W3C//DTD SVG 1.1//EN" "http://www.w3.org/Graphics/SVG/1.1/DTD/svg11.dtd">
<!-- Creator: CorelDRAW 2021 (64-Bit) -->
<svg xmlns="http://www.w3.org/2000/svg" xml:space="preserve" width="3.79844in" height="3.79598in" version="1.1" style="shape-rendering:geometricPrecision; text-rendering:geometricPrecision; image-rendering:optimizeQuality; fill-rule:evenodd; clip-rule:evenodd"
viewBox="0 0 1817.76 1816.58"
 xmlns:xlink="http://www.w3.org/1999/xlink"
 xmlns:xodm="http://www.corel.com/coreldraw/odm/2003">
 <defs>
  <style type="text/css">
   <![CDATA[
    .str0 {stroke:white;stroke-width:3.32;stroke-miterlimit:10}
    .fil4 {fill:none;fill-rule:nonzero}
    .fil11 {fill:black;fill-rule:nonzero}
    .fil12 {fill:#000400;fill-rule:nonzero}
    .fil2 {fill:#0DB2F3;fill-rule:nonzero}
    .fil9 {fill:#48D6FC;fill-rule:nonzero}
    .fil6 {fill:#7947EE;fill-rule:nonzero}
    .fil5 {fill:#F7F5F7;fill-rule:nonzero}
    .fil1 {fill:#FD4C8E;fill-rule:nonzero}
    .fil7 {fill:#FF9CC0;fill-rule:nonzero}
    .fil8 {fill:#FFC000;fill-rule:nonzero}
    .fil10 {fill:#FFFF66;fill-rule:nonzero}
    .fil3 {fill:white;fill-rule:nonzero}
    .fil0 {fill:url(#id0)}
   ]]>
  </style>
  <linearGradient id="id0" gradientUnits="userSpaceOnUse" x1="-0" y1="908.45" x2="1816.26" y2="908.45">
   <stop offset="0" style="stop-opacity:1; stop-color:#00C5E2"/>
   <stop offset="0.0117647" style="stop-opacity:1; stop-color:#00C5E2"/>
   <stop offset="1" style="stop-opacity:1; stop-color:#6E06AE"/>
  </linearGradient>
 </defs>
 <g id="Layer_x0020_1">
  <metadata id="CorelCorpID_0Corel-Layer"/>
  <g id="_2517416608032">
   <polygon class="fil0" points="-0,0.32 1816.26,0.32 1816.26,1816.58 -0,1816.58 "/>
   <path class="fil1" d="M1592.43 1406.44c221.01,-100.68 139.83,-297.23 106.18,-499.84 -17.34,-104.42 36.77,-181.84 117.65,-211.94l0 1121.92 -951.58 0c2.2,-30.91 3.56,-63.36 3.89,-97.49 5.19,-521.73 502.85,-211.97 723.86,-312.65z"/>
   <path class="fil2" d="M-0 244.27c134.03,-2.86 289.41,-44.22 385.49,-41.64 184.29,4.96 346.23,183.16 256.52,401.03 -89.71,217.88 -292.47,160.78 -118.12,602.12 104.23,263.84 54.15,485.93 5.17,610.8l-529.07 0 0 -1572.31z"/>
   <path class="fil3" d="M1809.5 391.77c2.41,4.39 4.65,8.75 6.77,13.09l0 194.63c-84.98,152 -362.81,190.1 -413.31,-62.06 -69.27,-345.93 -189.99,-345.93 -403.15,-309.51 -181.86,31.05 -498.05,26.91 -448.67,-227.6l1265.14 0 0 43.64c-54.2,72.85 -93.95,189.03 -6.77,347.81z"/>
   <path class="fil4 str0" d="M1809.5 391.77c2.41,4.39 4.65,8.75 6.77,13.09m0 194.63c-84.98,152 -362.81,190.1 -413.31,-62.06 -69.27,-345.93 -189.99,-345.93 -403.15,-309.51 -181.86,31.05 -498.05,26.91 -448.67,-227.6m1265.14 43.64c-54.2,72.85 -93.95,189.03 -6.77,347.81"/>
   <polygon class="fil5" points="1701.89,0.32 1550.82,351.2 1331.14,101 1553.5,0.32 "/>
   <path class="fil6" d="M-0 1395.38c230.85,-56.38 401.52,-266.19 398.76,-513.78 -2.71,-243.53 -172.37,-446.78 -398.76,-502.12l0 -17.45c235.74,55.7 412.9,266.52 415.72,519.38 2.86,257.06 -175.35,474.66 -415.72,531.41l0 -17.44z"/>
   <path class="fil6" d="M-0 1307.5c183.11,-54.15 316.2,-224.78 313.97,-424.95 -2.19,-196.76 -134.45,-362.07 -313.97,-415.19l0 -17.69c188.91,53.63 328.63,226.57 330.93,432.7 2.34,209.66 -138.25,388.16 -330.93,442.82l0 -17.68z"/>
   <path class="fil6" d="M-0 1236.19c144.76,-51.63 247.94,-190.8 246.14,-352.89 -1.77,-159.19 -104.29,-294.02 -246.14,-344.63l0 -17.98c151.29,51.32 261.21,193.82 263.1,362.43 1.91,171.63 -108.73,318.71 -263.1,371.05l0 -17.97z"/>
   <path class="fil6" d="M-0 1172.39c111,-48.49 188.22,-159.87 186.79,-288.43 -1.41,-126.1 -78.1,-234 -186.79,-281.5l0 -18.41c118.18,48.51 202.23,164.14 203.75,299.72 1.54,138.16 -83.07,257.52 -203.75,307.03l0 -18.41z"/>
   <path class="fil6" d="M-0 1098.49c73.08,-43.11 121.85,-123.02 120.84,-213.79 -0.99,-88.84 -49.4,-166.2 -120.84,-208.33l0 -19.47c81.08,43.8 136.7,129.11 137.8,227.61 1.12,100.58 -54.91,188.68 -137.8,233.45l0 -19.47z"/>
   <path class="fil6" d="M-0 1022.74c37.13,-34.06 60.21,-83.13 59.61,-137.37 -0.59,-52.77 -23.49,-100.15 -59.61,-133.28l0 -22.23c46.01,36.29 75.87,92.28 76.57,155.32 0.72,64.64 -29.37,122.55 -76.57,159.8l0 -22.24z"/>
   <path class="fil6" d="M-0 821.87c10.15,19.13 16.01,40.88 16.27,63.99 0.27,24.21 -5.65,47.08 -16.27,67.1l0 -131.09z"/>
   <path class="fil5" d="M1150.97 1382.81c0,153.34 124.32,277.64 277.65,277.64 153.34,0 277.65,-124.3 277.65,-277.64 0,-153.35 -124.31,-277.65 -277.65,-277.65 -153.34,0 -277.65,124.3 -277.65,277.65z"/>
   <path class="fil7" d="M1511.55 536.9c73.56,0 133.42,59.86 133.42,133.43 0,73.56 -59.86,133.4 -133.42,133.4 -73.57,0 -133.42,-59.84 -133.42,-133.4 0,-73.57 59.85,-133.43 133.42,-133.43zm0 301.64c92.77,0 168.23,-75.45 168.23,-168.21 0,-92.77 -75.46,-168.23 -168.23,-168.23 -92.77,0 -168.23,75.46 -168.23,168.23 0,92.76 75.46,168.21 168.23,168.21z"/>
   <path class="fil8" d="M245.48 268.19c0,42.12 34.14,76.26 76.26,76.26 42.12,0 76.26,-34.14 76.26,-76.26 0,-42.11 -34.14,-76.25 -76.26,-76.25 -42.11,0 -76.26,34.14 -76.26,76.25z"/>
   <path class="fil8" d="M1214.37 1349.36c0,67.43 54.65,122.08 122.07,122.08 67.43,0 122.08,-54.65 122.08,-122.08 0,-67.42 -54.65,-122.05 -122.08,-122.05 -67.41,0 -122.07,54.63 -122.07,122.05z"/>
   <polygon class="fil9" points="872.78,488.1 1280.7,591.06 928.22,947.49 "/>
   <polygon class="fil8" points="1793.72,1816.58 1793.72,1695.9 1751.25,1695.9 1751.25,1816.58 "/>
   <polygon class="fil8" points="1702.25,1816.58 1702.25,1695.9 1659.78,1695.9 1659.78,1816.58 "/>
   <polygon class="fil8" points="1610.79,1816.58 1610.79,1695.9 1568.32,1695.9 1568.32,1816.58 "/>
   <polygon class="fil8" points="1519.33,1816.58 1519.33,1695.9 1476.86,1695.9 1476.86,1816.58 "/>
   <polygon class="fil8" points="1427.86,1816.58 1427.86,1695.9 1385.39,1695.9 1385.39,1816.58 "/>
   <polygon class="fil8" points="1336.4,1816.58 1336.4,1695.9 1293.93,1695.9 1293.93,1816.58 "/>
   <polygon class="fil8" points="1244.93,1816.58 1244.93,1695.9 1202.46,1695.9 1202.46,1816.58 "/>
   <polygon class="fil8" points="1153.47,1816.58 1153.47,1695.9 1110.99,1695.9 1110.99,1816.58 "/>
   <polygon class="fil8" points="1062,1816.58 1062,1695.9 1019.53,1695.9 1019.53,1816.58 "/>
   <polygon class="fil8" points="970.54,1816.58 970.54,1695.9 928.07,1695.9 928.07,1816.58 "/>
   <polygon class="fil8" points="1514.82,100.93 1557.29,100.93 1557.29,0.32 1514.82,0.32 "/>
   <polygon class="fil8" points="1423.36,100.93 1465.82,100.93 1465.82,0.32 1423.36,0.32 "/>
   <polygon class="fil8" points="1331.89,100.93 1374.36,100.93 1374.36,0.32 1331.89,0.32 "/>
   <polygon class="fil8" points="1240.42,100.93 1282.89,100.93 1282.89,0.32 1240.42,0.32 "/>
   <polygon class="fil8" points="1148.96,100.93 1191.43,100.93 1191.43,0.32 1148.96,0.32 "/>
   <polygon class="fil8" points="1057.49,100.93 1099.96,100.93 1099.96,0.32 1057.49,0.32 "/>
   <polygon class="fil8" points="966.03,100.93 1008.5,100.93 1008.5,0.32 966.03,0.32 "/>
   <polygon class="fil8" points="874.57,100.93 917.04,100.93 917.04,0.32 874.57,0.32 "/>
   <polygon class="fil8" points="783.1,100.93 825.57,100.93 825.57,0.32 783.1,0.32 "/>
   <polygon class="fil8" points="691.64,100.93 734.11,100.93 734.11,0.32 691.64,0.32 "/>
   <polygon class="fil8" points="600.18,100.93 642.64,100.93 642.64,0.32 600.18,0.32 "/>
   <polygon class="fil10" points="1123.32,1372.63 3.47,252.79 12.75,243.53 1132.58,1363.36 "/>
   <polygon class="fil11" points="1295.33,953.18 342.47,0.32 369.49,0.32 1308.84,939.67 "/>
   <polygon class="fil11" points="597.12,1816.58 77.39,1296.85 93.22,1281.02 628.79,1816.58 "/>
   <path class="fil5" d="M760.72 333.47c0,30.32 24.59,54.91 54.92,54.91 30.34,0 54.92,-24.59 54.92,-54.91 0,-30.34 -24.59,-54.93 -54.92,-54.93 -30.34,0 -54.92,24.59 -54.92,54.93z"/>
   <path class="fil5" d="M81.26 742.28c0,69.47 56.32,125.8 125.82,125.8 69.49,0 125.81,-56.33 125.81,-125.8 0,-69.5 -56.32,-125.83 -125.81,-125.83 -69.5,0 -125.82,56.33 -125.82,125.83z"/>
   <path class="fil8" d="M606.27 1449.34c0,51.14 41.46,92.61 92.59,92.61 51.13,0 92.57,-41.46 92.57,-92.61 0,-51.13 -41.44,-92.57 -92.57,-92.57 -51.14,0 -92.59,41.44 -92.59,92.57z"/>
   <path class="fil8" d="M750.3 1202.47c0,17.04 13.81,30.86 30.85,30.86 17.05,0 30.86,-13.82 30.86,-30.86 0,-17.05 -13.81,-30.86 -30.86,-30.86 -17.04,0 -30.85,13.81 -30.85,30.86z"/>
   <path class="fil5" d="M745.32 192.54c0,20.23 16.39,36.62 36.61,36.62 20.22,0 36.62,-16.39 36.62,-36.62 0,-20.23 -16.4,-36.62 -36.62,-36.62 -20.23,0 -36.61,16.4 -36.61,36.62z"/>
   <path class="fil11" d="M1556.92 192.54c0,40.44 32.78,73.23 73.22,73.23 40.45,0 73.23,-32.79 73.23,-73.23 0,-40.45 -32.78,-73.23 -73.23,-73.23 -40.44,0 -73.22,32.79 -73.22,73.23z"/>
   <polygon class="fil5" points="228.55,1523.01 429.93,1724.38 240.76,1724.38 "/>
   <polygon class="fil5" points="569.74,393.09 771.12,594.47 581.95,594.47 "/>
   <path class="fil12" d="M1176.37 145.49c73.17,0 132.71,59.54 132.71,132.72 0,73.17 -59.54,132.7 -132.71,132.7 -73.18,0 -132.71,-59.53 -132.71,-132.7 0,-73.18 59.53,-132.72 132.71,-132.72zm0 280.68c81.59,0 147.97,-66.39 147.97,-147.96 0,-81.59 -66.38,-147.97 -147.97,-147.97 -81.59,0 -147.97,66.38 -147.97,147.97 0,81.57 66.39,147.96 147.97,147.96z"/>
  </g>
 </g>
</svg>
