<?xml version="1.0" encoding="UTF-8"?>
<!DOCTYPE svg PUBLIC "-//W3C//DTD SVG 1.1//EN" "http://www.w3.org/Graphics/SVG/1.1/DTD/svg11.dtd">
<!-- Creator: CorelDRAW 2021 (64-Bit) -->
<svg xmlns="http://www.w3.org/2000/svg" xml:space="preserve" width="8.26771in" height="7.23506in" version="1.1" style="shape-rendering:geometricPrecision; text-rendering:geometricPrecision; image-rendering:optimizeQuality; fill-rule:evenodd; clip-rule:evenodd"
viewBox="0 0 8267.29 7234.69"
 xmlns:xlink="http://www.w3.org/1999/xlink"
 xmlns:xodm="http://www.corel.com/coreldraw/odm/2003">
 <defs>
  <style type="text/css">
   <![CDATA[
    .fil0 {fill:#4E73DF;fill-rule:nonzero}
   ]]>
  </style>
 </defs>
 <g id="Layer_x0020_1">
  <metadata id="CorelCorpID_0Corel-Layer"/>
  <g id="_2066878855200">
   <path class="fil0" d="M7889.45 3523.7l-1559.8 -584.53 0 -1751.95c0,-242.2 -150.17,-458.58 -377.84,-544.16l-1614.71 -605.52c-130.79,-50.06 -276.12,-50.06 -408.52,0l-1614.7 605.52c-227.67,85.58 -377.84,301.95 -377.84,544.16l0 1751.95 -1559.81 584.53c-226.06,85.58 -376.22,301.95 -376.22,544.15l0 1777.79c0,219.6 124.33,421.44 321.33,519.93l1614.71 807.35c163.09,82.35 356.85,82.35 519.93,0l1677.67 -839.65 1677.68 839.65c163.09,82.35 356.85,82.35 519.93,0l1614.71 -807.35c196.99,-98.5 321.33,-300.34 321.33,-519.93l0.01 -1777.79c0,-242.2 -150.17,-458.57 -377.84,-544.15zm-2108.81 -571.6l-1372.5 515.09 0 -1101.23 1372.5 -597.44 0 1183.58zm-3293.99 -1787.48l1646.99 -616.82 1647 616.82 0 9.69 -1647 668.49 -1646.99 -668.49 0 -9.69zm1356.35 4700.41l-1372.5 686.25 0 -1277.23 1372.5 -626.51 0 1217.49 0 0zm0 -1808.47l-1646.99 668.49 -1647 -668.49 0 -9.69 1647 -616.82 1646.99 616.82 0 9.69zm3875.29 1808.47l-1372.5 686.25 0 -1277.23 1372.5 -626.51 0 1217.49 0 0zm0 -1808.47l-1647 668.49 -1647 -668.49 0 -9.69 1647 -616.82 1647 616.82 0 9.69z"/>
  </g>
 </g>
</svg>
